<svg width="16" height="11" viewBox="0 0 16 11" fill="none" xmlns="http://www.w3.org/2000/svg">
<g clip-path="url(#clip0_23_2851)">
<path d="M15.2 0H0.999971C0.899971 0 0.809971 0.02 0.719971 0.04L7.93997 6.64L15.2 0Z" fill="#1A1A1A"/>
<path d="M15.94 0.640137L8.66 7.28014C8.47 7.46014 8.22 7.55014 7.96 7.55014C7.69 7.55014 7.44 7.45014 7.25 7.28014L0.04 0.700137C0.016922 0.77136 0.00346952 0.845349 0 0.920137L0 10.0801C0 10.3301 0.1 10.5601 0.3 10.7301C0.48 10.9001 0.73 11.0001 1 11.0001H15C15.27 11.0001 15.52 10.9001 15.7 10.7301C15.9 10.5601 16 10.3301 16 10.0801V0.920137C16 0.820137 15.98 0.730137 15.94 0.640137ZM1.69 10.0801H0.99V9.43014L4.62 6.13014L5.33 6.77014L1.68 10.0801H1.69ZM14.99 10.0801H14.29L10.65 6.78014L11.35 6.13014L14.98 9.43014L14.99 10.0801Z" fill="#1A1A1A"/>
</g>
<defs>
<clipPath id="clip0_23_2851">
<rect width="16" height="11" fill="white"/>
</clipPath>
</defs>
</svg>
