<svg width="16" height="14" viewBox="0 0 16 14" fill="none" xmlns="http://www.w3.org/2000/svg">
<g clip-path="url(#clip0_23_2855)">
<path d="M3.82 6.56C4.94 8.76 6.74 10.56 8.94 11.68L10.65 9.98C10.7507 9.87425 10.8793 9.79929 11.021 9.76388C11.1626 9.72847 11.3114 9.73406 11.45 9.78C12.32 10.08 13.25 10.23 14.22 10.23C14.65 10.23 15 10.58 15 11.01V13.72C15 14.15 14.65 14.5 14.22 14.5C6.92 14.5 1 8.58 1 1.28C1 0.85 1.35 0.5 1.78 0.5H4.5C4.93 0.5 5.28 0.85 5.28 1.28C5.28 2.25 5.43 3.18 5.72 4.05C5.81 4.33 5.74 4.63 5.52 4.85L3.82 6.55V6.56Z" fill="#1A1A1A"/>
</g>
<defs>
<clipPath id="clip0_23_2855">
<rect width="16" height="14" fill="white"/>
</clipPath>
</defs>
</svg>
