<svg width="16" height="17" viewBox="0 0 16 17" fill="none" xmlns="http://www.w3.org/2000/svg">
<g clip-path="url(#clip0_23_2848)">
<path d="M8 2.80619e-05C6.14 2.80619e-05 4.36 0.700028 3.05 1.96003C2.40642 2.5669 1.89285 3.29821 1.54045 4.10958C1.18806 4.92094 1.00419 5.79545 1 6.68003C1 12.39 7.36 16.71 7.63 16.89C7.74018 16.9615 7.86868 16.9995 8 16.9995C8.13132 16.9995 8.25982 16.9615 8.37 16.89C8.64 16.71 15 12.4 15 6.68003C15 4.91003 14.26 3.21003 12.95 1.96003C11.6121 0.6965 9.8402 -0.00511366 8 2.80619e-05ZM8 4.25003C8.5 4.25003 9 4.39003 9.41 4.65003C9.83 4.93003 10.16 5.31003 10.35 5.75003C10.5456 6.19402 10.5978 6.68801 10.4992 7.16307C10.4006 7.63813 10.1562 8.07057 9.8 8.40003C9.43438 8.73913 8.9808 8.96864 8.49102 9.06235C8.00124 9.15606 7.49498 9.11021 7.03 8.93003C6.56 8.73003 6.16 8.43003 5.88 8.03003C5.55379 7.56588 5.40649 6.99939 5.46531 6.43513C5.52412 5.87086 5.78508 5.34693 6.2 4.96003C6.68631 4.5006 7.331 4.2463 8 4.25003Z" fill="#1A1A1A"/>
</g>
<defs>
<clipPath id="clip0_23_2848">
<rect width="16" height="17" fill="white"/>
</clipPath>
</defs>
</svg>
