<svg width="43" height="42" viewBox="0 0 43 42" fill="none" xmlns="http://www.w3.org/2000/svg">
<g clip-path="url(#clip0_115_638)">
<path d="M22.2326 42C33.7024 42 43.0004 32.598 43.0004 21C43.0004 9.40202 33.7024 0 22.2326 0C10.7629 0 1.46484 9.40202 1.46484 21C1.46484 32.598 10.7629 42 22.2326 42Z" fill="black"/>
<path d="M28.6223 19.4451L18.8135 13.0826V1.88461L28.6223 7.22911V19.4451Z" fill="#FFB800"/>
<path d="M18.8135 13.093L0 24.811V13.093L18.8135 1.88461V13.093Z" fill="#FEC606"/>
<path d="M28.6223 34.7293L18.8135 28.3668V17.1687L28.6223 22.5132V34.7293Z" fill="#FFB800"/>
<path d="M18.8135 28.377L0 40.0949V28.377L18.8135 17.1687V28.377Z" fill="#FEC606"/>
</g>
<defs>
<clipPath id="clip0_115_638">
<rect width="43" height="42" fill="white"/>
</clipPath>
</defs>
</svg>
