<svg width="13" height="9" viewBox="0 0 13 9" fill="none" xmlns="http://www.w3.org/2000/svg">
<g clip-path="url(#clip0_2001_1324)">
<path d="M12.35 0.03125H0.812461C0.731211 0.03125 0.658086 0.0475 0.584961 0.06375L6.45121 5.42625L12.35 0.03125Z" fill="white"/>
<path d="M12.9513 0.55127L7.03625 5.94627C6.88188 6.09252 6.67875 6.16564 6.4675 6.16564C6.24813 6.16564 6.045 6.08439 5.89062 5.94627L0.0325 0.60002C0.0137491 0.657888 0.00281899 0.718004 0 0.77877L0 8.22127C0 8.42439 0.08125 8.61127 0.24375 8.74939C0.39 8.88752 0.593125 8.96877 0.8125 8.96877H12.1875C12.4069 8.96877 12.61 8.88752 12.7562 8.74939C12.9187 8.61127 13 8.42439 13 8.22127V0.77877C13 0.69752 12.9837 0.624395 12.9513 0.55127ZM1.37313 8.22127H0.804375V7.69314L3.75375 5.01189L4.33063 5.53189L1.365 8.22127H1.37313ZM12.1794 8.22127H11.6106L8.65312 5.54002L9.22188 5.01189L12.1712 7.69314L12.1794 8.22127Z" fill="white"/>
</g>
<defs>
<clipPath id="clip0_2001_1324">
<rect width="13" height="9" fill="white"/>
</clipPath>
</defs>
</svg>
