<svg width="13" height="13" viewBox="0 0 13 13" fill="none" xmlns="http://www.w3.org/2000/svg">
<path d="M6.49991 2.14591e-05C5.07756 2.14591e-05 3.71638 0.535316 2.71462 1.49884C2.22247 1.96293 1.82974 2.52216 1.56026 3.14262C1.29078 3.76307 1.15017 4.43181 1.14697 5.10826C1.14697 9.47473 6.0105 12.7783 6.21697 12.9159C6.30123 12.9705 6.3995 12.9996 6.49991 12.9996C6.60033 12.9996 6.6986 12.9705 6.78286 12.9159C6.98933 12.7783 11.8529 9.48237 11.8529 5.10826C11.8529 3.75473 11.287 2.45473 10.2852 1.49884C9.26214 0.532618 7.90713 -0.00391045 6.49991 2.14591e-05ZM6.49991 3.25002C6.88227 3.25002 7.26462 3.35708 7.57815 3.5559C7.89933 3.77002 8.15168 4.06061 8.29697 4.39708C8.44659 4.7366 8.48647 5.11436 8.41108 5.47764C8.33568 5.84093 8.14875 6.17161 7.87639 6.42355C7.5968 6.68287 7.24994 6.85837 6.8754 6.93003C6.50086 7.00169 6.11372 6.96663 5.75815 6.82885C5.39874 6.6759 5.09286 6.44649 4.87874 6.14061C4.62928 5.78567 4.51664 5.35247 4.56162 4.92098C4.6066 4.48948 4.80615 4.08883 5.12344 3.79296C5.49533 3.44163 5.98833 3.24717 6.49991 3.25002Z" fill="white"/>
</svg>
