<svg width="42" height="42" viewBox="0 0 42 42" fill="none" xmlns="http://www.w3.org/2000/svg">
<path d="M20.4882 3.47934C10.312 4.01108 3.5946 11.992 4.01901 22.056C4.20439 26.4611 5.97522 30.2515 6.39475 34.4322C6.50208 35.5152 6.18986 36.8519 7.43871 37.3251C8.97538 37.9056 11.3316 36.9299 12.6195 36.0372C13.0585 35.7396 13.4781 35.3933 13.8 34.964C15.1318 35.847 16.3953 36.7007 17.9808 37.0812C24.9616 38.7544 32.6108 34.925 36.011 28.7734C42.4016 17.2167 33.7621 2.78662 20.4882 3.47934ZM16.5368 27.5977C15.9855 28.027 15.4538 28.6124 14.844 28.949C13.961 29.4222 13.6878 28.9295 13.3561 28.149C12.3122 25.6659 12.1853 21.4364 12.7951 18.8363C13.6147 15.2995 16.3514 12.1871 20.1126 11.8554C23.9177 11.5188 27.4496 13.4506 29.0448 16.9386C32.5767 24.7 23.5372 32.3638 16.5368 27.6026V27.5977Z" fill="white"/>
</svg>
