<svg width="42" height="42" viewBox="0 0 42 42" fill="none" xmlns="http://www.w3.org/2000/svg">
<path d="M21.0017 3.5C30.667 3.5 38.5017 11.3348 38.5017 21C38.5017 30.6652 30.667 38.5 21.0017 38.5C17.9091 38.5053 14.8708 37.6869 12.1992 36.1288L3.50874 38.5L5.87474 29.806C4.31541 27.1336 3.49632 24.094 3.50174 21C3.50174 11.3348 11.3365 3.5 21.0017 3.5ZM15.0377 12.775L14.6877 12.789C14.4614 12.8046 14.2403 12.864 14.0367 12.964C13.847 13.0716 13.6737 13.206 13.5222 13.363C13.3122 13.5608 13.1932 13.7322 13.0655 13.8985C12.4182 14.7401 12.0697 15.7733 12.075 16.835C12.0785 17.6925 12.3025 18.5272 12.6525 19.3077C13.3682 20.8863 14.546 22.5575 16.1 24.1062C16.4745 24.479 16.842 24.8535 17.2375 25.2018C19.1685 26.9017 21.4695 28.1277 23.9575 28.7823L24.9515 28.9345C25.2752 28.952 25.599 28.9275 25.9245 28.9117C26.4341 28.8849 26.9316 28.7469 27.3822 28.5075C27.6112 28.3891 27.8349 28.2606 28.0525 28.1225C28.0525 28.1225 28.1266 28.0723 28.2712 27.965C28.5075 27.79 28.6527 27.6658 28.8487 27.461C28.9957 27.3093 29.1182 27.1332 29.2162 26.9325C29.3527 26.6473 29.4892 26.103 29.5452 25.6497C29.5872 25.3032 29.575 25.1143 29.5697 24.997C29.5627 24.8098 29.407 24.6155 29.2372 24.5333L28.2187 24.0765C28.2187 24.0765 26.6962 23.4133 25.7652 22.9898C25.6678 22.9473 25.5634 22.923 25.4572 22.918C25.3375 22.9055 25.2164 22.9188 25.1023 22.9572C24.9882 22.9955 24.8836 23.058 24.7957 23.1402C24.787 23.1367 24.6697 23.2365 23.4045 24.7695C23.3319 24.8671 23.2318 24.9408 23.1171 24.9813C23.0024 25.0219 22.8783 25.0273 22.7605 24.997C22.6464 24.9666 22.5347 24.928 22.4262 24.8815C22.2092 24.7905 22.134 24.7555 21.9852 24.6925C20.9805 24.2548 20.0505 23.6626 19.229 22.9373C19.0085 22.7448 18.8037 22.5347 18.5937 22.3317C17.9053 21.6724 17.3053 20.9265 16.8087 20.1128L16.7055 19.9465C16.6324 19.8341 16.5726 19.7138 16.527 19.5877C16.4605 19.3305 16.6337 19.124 16.6337 19.124C16.6337 19.124 17.059 18.6585 17.2567 18.4065C17.4492 18.1615 17.612 17.9235 17.717 17.7538C17.9235 17.4213 17.9882 17.08 17.8797 16.8158C17.3897 15.6188 16.8834 14.4282 16.3607 13.244C16.2575 13.0095 15.9512 12.8415 15.673 12.8082C15.5785 12.7966 15.484 12.7872 15.3895 12.7802C15.1545 12.7668 14.9189 12.7691 14.6842 12.7873L15.0377 12.775Z" fill="#FFBB10"/>
</svg>
